<svg id="Layer_1" data-name="Layer 1" xmlns="http://www.w3.org/2000/svg" viewBox="0 0 90 68.43"><title>icon</title><path d="M31.64,35.1a4.19,4.19,0,1,0,4.19,4.18,4.18,4.18,0,0,0-4.19-4.18" transform="translate(0 -10.78)"/><path d="M58.36,35.1a4.19,4.19,0,1,0,4.18,4.18,4.19,4.19,0,0,0-4.18-4.18" transform="translate(0 -10.78)"/><path d="M89.83,41.42c-1.06-6.26-11.46-18.63-13.53-21l-.16-.16c-3-2.95-6.83-2.47-9.5-1.39a34,34,0,0,0-43.72-.17c-2.64-.95-6.26-1.23-9.06,1.56l-.16.16C11.63,22.79,1.23,35.16.16,41.42-1,48.52,4.5,53.07,13.32,57.56a34,34,0,0,0,29.26,21,5.06,5.06,0,0,0,2.42.64,5,5,0,0,0,2.43-.65,34.08,34.08,0,0,0,29.27-21c8.8-4.49,14.34-9,13.13-16.13M48.43,72.65c-.88,2.16-2.2,3.46-3.43,3.46s-2.54-1.29-3.41-3.45a13.76,13.76,0,0,1-1-4.31A11.07,11.07,0,0,0,44.1,67c.32-.19.62-.38.9-.58.27.2.58.39.9.58a11.07,11.07,0,0,0,3.48,1.33,14.37,14.37,0,0,1-1,4.3M77,50.83a47.75,47.75,0,0,0-3.84-13.9l-5.25,2.46A44.38,44.38,0,0,1,71.51,55,28,28,0,0,1,51.88,72a17,17,0,0,0,.59-3.52,11.37,11.37,0,0,0,6.27-2.89l-2-2.36c-4.62,4-8.74,1.56-10.16.47v-6C49.1,57,51,54.63,51,53c0-1.94-2.68-3.49-6-3.49S39,51.08,39,53c0,1.61,1.88,4,4.44,4.72v6a7.59,7.59,0,0,1-10.16-.47l-2,2.36a11.43,11.43,0,0,0,6.27,2.89,18.41,18.41,0,0,0,.6,3.54A28.21,28.21,0,0,1,18.5,54.93a43.93,43.93,0,0,1,3.64-15.54l-5.25-2.45a48.26,48.26,0,0,0-3.84,13.89c-7.84-4.53-7.42-7-7.17-8.44C6.45,39,13.29,29.77,18,24.26c1.44-1.31,4.1.4,4.12.41l2.26,1.08,1.39-1.91a28.25,28.25,0,0,1,38.39.53l2.22,2,1.5-1.73s2.68-1.7,4.11-.4C76.72,29.77,83.55,39,84.13,42.39c.24,1.42.66,3.92-7.18,8.44" transform="translate(0 -10.78)"/></svg>