<?xml version="1.0" encoding="utf-8"?>
<svg version="1.1" xmlns="http://www.w3.org/2000/svg" xmlns:xlink="http://www.w3.org/1999/xlink" x="0px" y="0px"
     viewBox="0 0 500 500" xml:space="preserve">
<g id="Paw">
    <path d="M207.2,140.2c30.8,0,46.1,47.6,25.2,75.8c-21.4,29-60,9.6-60-31C172.4,163.2,185.7,140.2,207.2,140.2z"/>
    <path d="M350.9,199.2c24.8,0,37.2,36.9,20.4,58.8c-17.3,22.6-48.5,7.6-48.5-24C322.7,216.7,333.8,199.2,350.9,199.2z"/>
    <path d="M286.3,140.2c30.8,0,46.1,47.6,25.2,75.8c-21.4,29-60,9.6-60-31C251.6,163.2,264.9,140.2,286.3,140.2z"/>
    <path d="M250.5,345.3c-19.4,0-27.8,12.7-52.2,14.4c-37.1,2.5-49.9-43.1-33-76.3c11.9-23.5,38.8-43.1,85.2-41.6
        c46.4-1.5,73.3,18.1,85.2,41.6c17.1,33.6,3.6,79-33.1,76.2C277.5,357.8,272.5,345.3,250.5,345.3z"/>
    <path d="M149.1,197.4c24.8,0,37.2,36.8,20.4,58.8c-17.3,22.6-48.5,7.6-48.5-24C121,214.9,132.1,197.4,149.1,197.4z"/>
</g>
</svg>
